<?xml version="1.0" encoding="UTF-8" standalone="no"?>
<svg width="310px" height="47px" viewBox="0 0 310 47" version="1.1" xmlns="http://www.w3.org/2000/svg" xmlns:xlink="http://www.w3.org/1999/xlink" xmlns:sketch="http://www.bohemiancoding.com/sketch/ns">
    <!-- Generator: Sketch 3.2.2 (9983) - http://www.bohemiancoding.com/sketch -->
    <title>Logo</title>
    <desc>Created with Sketch.</desc>
    <defs></defs>
    <g id="Abstract-Pastel" stroke="none" stroke-width="1" fill="none" fill-rule="evenodd" sketch:type="MSPage">
        <g id="Artboard-3" sketch:type="MSArtboardGroup" transform="translate(-49.000000, -167.000000)" fill="#001736">
            <g id="Logo" sketch:type="MSLayerGroup" transform="translate(48.000000, 157.000000)">
                <text id="ThingStudi" sketch:type="MSTextLayer" font-family="American Typewriter" font-size="52" font-weight="normal">
                    <tspan x="0" y="47">ThingStudi</tspan>
                </text>
                <path d="M295.084211,20.3777038 L295.084211,16.9500425 C295.084211,16.4250585 294.660726,16 294.138331,16 L291.861669,16 C291.346183,16 290.915789,16.4253485 290.915789,16.9500425 L290.915789,20.5263928 C288.753992,20.9364711 286.771804,21.8539446 285.097778,23.1502591 L282.417619,20.4701 C282.046399,20.0988802 281.446389,20.0977673 281.077,20.4671562 L279.467156,22.0769997 C279.102653,22.4415028 279.099085,23.0466042 279.4701,23.4176189 L282.224794,26.1723126 C281.05554,27.8514759 280.252199,29.8044751 279.930289,31.9157894 L275.950043,31.9157894 C275.425058,31.9157894 275,32.339274 275,32.8616687 L275,35.1383313 C275,35.6538165 275.425349,36.0842106 275.950043,36.0842106 L279.930289,36.0842106 C280.252199,38.1955249 281.05554,40.1485241 282.224794,41.8276874 L279.4701,44.5823811 C279.09888,44.9536009 279.097767,45.5536114 279.467156,45.9230003 L281.077,47.5328438 C281.441503,47.8973469 282.046604,47.9009147 282.417619,47.5299 L285.097778,44.8497409 C286.771804,46.1460554 288.753992,47.0635289 290.915789,47.4736072 L290.915789,51.0499575 C290.915789,51.5749415 291.339274,52 291.861669,52 L294.138331,52 C294.653817,52 295.084211,51.5746515 295.084211,51.0499575 L295.084211,47.6222962 C297.382366,47.3557757 299.507301,46.5211153 301.314905,45.2624243 L303.582381,47.5299 C303.953601,47.9011198 304.553611,47.9022327 304.923,47.5328438 L306.532844,45.9230003 C306.897347,45.5584972 306.900915,44.9533958 306.5299,44.5823811 L304.336959,42.38944 C305.73007,40.5904138 306.685651,38.4354855 307.044147,36.0842106 L310.049957,36.0842106 C310.574942,36.0842106 311,35.660726 311,35.1383313 L311,32.8616687 C311,32.3461835 310.574651,31.9157894 310.049957,31.9157894 L307.044147,31.9157894 C306.685651,29.5645145 305.73007,27.4095862 304.336959,25.61056 L306.5299,23.4176189 C306.90112,23.0463991 306.902233,22.4463886 306.532844,22.0769997 L304.923,20.4671562 C304.558497,20.1026531 303.953396,20.0990853 303.582381,20.4701 L301.314905,22.7375757 C299.507301,21.4788847 297.382366,20.6442243 295.084211,20.3777038 Z M293.554887,44.0150376 C299.048667,44.0150376 303.502256,39.5614491 303.502256,34.0676692 C303.502256,28.5738893 299.048667,24.1203008 293.554887,24.1203008 C288.061107,24.1203008 283.607519,28.5738893 283.607519,34.0676692 C283.607519,39.5614491 288.061107,44.0150376 293.554887,44.0150376 Z" id="Rectangle-17" sketch:type="MSShapeGroup"></path>
            </g>
        </g>
    </g>
</svg>