<?xml version="1.0" encoding="UTF-8" standalone="no"?>
<svg width="48px" height="48px" viewBox="0 0 48 48" version="1.1" xmlns="http://www.w3.org/2000/svg" xmlns:xlink="http://www.w3.org/1999/xlink" xmlns:sketch="http://www.bohemiancoding.com/sketch/ns">
    <!-- Generator: Sketch 3.2.2 (9983) - http://www.bohemiancoding.com/sketch -->
    <title>Checked</title>
    <desc>Created with Sketch.</desc>
    <defs></defs>
    <g id="Abstract-Pastel" stroke="none" stroke-width="1" fill="none" fill-rule="evenodd" sketch:type="MSPage">
        <g id="Artboard-6" sketch:type="MSArtboardGroup" transform="translate(-125.000000, -25.000000)">
            <g id="Checkmarks" sketch:type="MSLayerGroup" transform="translate(33.000000, 25.000000)">
                <g id="Checked" transform="translate(92.000000, 0.000000)" sketch:type="MSShapeGroup">
                    <rect id="Rectangle-13" stroke="#A486A0" stroke-width="2.11764706" x="0" y="0" width="48" height="48" rx="9.88235294"></rect>
                    <path d="M20.1765088,24.8484163 L17.5656878,18.9844163 C16.5483749,16.6994942 13.8749369,15.6714528 11.5938741,16.6870474 L10.4064621,17.2157173 C8.1203056,18.2335798 7.1007378,20.9064832 8.1178166,23.1908796 L13.9068453,36.1932509 C14.0203466,36.5832 14.1865935,36.9592559 14.4039487,37.3097634 L14.5071028,37.5414514 C15.306755,39.3374997 17.1296681,40.356966 18.9809502,40.2177483 C20.3448105,40.3073727 21.7241145,39.776481 22.6795598,38.6896786 C23.2430202,38.23267 23.677764,37.6534137 23.9621397,37.0093679 L39.4097837,16.5096518 C40.9159516,14.5108996 40.5193634,11.673756 38.5252232,10.1710635 L37.4871693,9.38883382 C35.4885761,7.88278579 32.6559202,8.28767814 31.1503092,10.2856913 L20.1765088,24.8484163 Z" id="Rectangle-14" fill="#A486A0"></path>
                </g>
            </g>
        </g>
    </g>
</svg>